<svg width="108" height="28" viewBox="0 0 108 28" fill="none" xmlns="http://www.w3.org/2000/svg">
    <g clip-path="url(#clip0_7_5363)">
        <path d="M0 14C0 7.63604 0 4.45406 1.97703 2.47703C3.95406 0.5 7.13604 0.5 13.5 0.5C19.864 0.5 23.0459 0.5 25.023 2.47703C27 4.45406 27 7.63604 27 14C27 20.364 27 23.5459 25.023 25.523C23.0459 27.5 19.864 27.5 13.5 27.5C7.13604 27.5 3.95406 27.5 1.97703 25.523C0 23.5459 0 20.364 0 14Z" fill="#0066FF"/>
        <g filter="url(#filter0_d_7_5363)">
            <path d="M13.3923 7.29343L6.79577 13.6895C6.76649 13.7179 6.75 13.7567 6.75 13.7972V18.9112C6.75 19.0452 6.91407 19.1128 7.01108 19.0188L13.3923 12.8314C13.452 12.7735 13.5479 12.7735 13.6077 12.8314L19.9889 19.0188C20.0859 19.1128 20.25 19.0452 20.25 18.9112V13.7972C20.25 13.7567 20.2335 13.7179 20.2042 13.6895L13.6077 7.29343C13.5479 7.23552 13.452 7.23552 13.3923 7.29343Z" stroke="white" stroke-width="1.5"/>
        </g>
        <path d="M35.939 19.9063C34.9975 19.9063 34.1548 19.6611 33.411 19.1709C32.6671 18.6807 32.0793 17.9691 31.6476 17.0361C31.2159 16.1032 31 14.9699 31 13.6363C31 12.2869 31.2185 11.1483 31.6554 10.2206C32.0975 9.28767 32.6932 8.58395 33.4422 8.10957C34.1912 7.62989 35.0261 7.39008 35.9468 7.39008C36.649 7.39008 37.2264 7.51128 37.6789 7.75379C38.1315 7.99096 38.4904 8.27822 38.7557 8.61559C39.021 8.94766 39.2265 9.26132 39.3721 9.55647H39.4891V3.5H42.3214V19.6928H39.5438V17.7794H39.3721C39.2265 18.0746 39.0158 18.3882 38.7401 18.7203C38.4644 19.0471 38.1003 19.3264 37.6477 19.5584C37.1952 19.7903 36.6256 19.9063 35.939 19.9063ZM36.7271 17.558C37.3252 17.558 37.835 17.3946 38.2563 17.0678C38.6777 16.7357 38.9976 16.2745 39.2161 15.6841C39.4345 15.0937 39.5438 14.4059 39.5438 13.6205C39.5438 12.8351 39.4345 12.1525 39.2161 11.5727C39.0028 10.9928 38.6855 10.5422 38.2641 10.2206C37.848 9.89912 37.3356 9.73835 36.7271 9.73835C36.0977 9.73835 35.5723 9.90436 35.1509 10.2364C34.7296 10.5685 34.4123 11.0271 34.199 11.6122C33.9857 12.1973 33.8791 12.8667 33.8791 13.6205C33.8791 14.3795 33.9857 15.0569 34.199 15.6525C34.4175 16.2429 34.7374 16.7094 35.1587 17.052C35.5853 17.3893 36.108 17.558 36.7271 17.558ZM52.2008 14.5851V7.54821H55.0255V19.6928H52.2868V17.5343H52.1619C51.8913 18.2142 51.4468 18.7704 50.8275 19.2026C50.2137 19.6348 49.457 19.8509 48.5571 19.8509C47.7716 19.8509 47.0772 19.6743 46.4739 19.3212C45.8756 18.9627 45.4073 18.4435 45.0695 17.7636C44.7312 17.0783 44.5623 16.2507 44.5623 15.2809V7.54821H47.3866V14.8381C47.3866 15.6077 47.5949 16.2192 48.011 16.6724C48.4271 17.1258 48.9732 17.3524 49.6493 17.3524C50.0658 17.3524 50.4686 17.2497 50.8591 17.0441C51.2491 16.8385 51.5691 16.5328 51.8185 16.1269C52.0735 15.7157 52.2008 15.2018 52.2008 14.5851ZM62.3728 24.5C61.3585 24.5 60.4874 24.3603 59.7591 24.081C59.0308 23.8069 58.4458 23.4379 58.0036 22.9741C57.5614 22.5102 57.2543 21.9962 57.0826 21.4322L59.6263 20.8076C59.7408 21.0448 59.9074 21.2794 60.1257 21.5113C60.3441 21.7485 60.6384 21.9436 61.0074 22.0964C61.3823 22.2545 61.8528 22.3336 62.42 22.3336C63.221 22.3336 63.8838 22.1359 64.4093 21.7406C64.9348 21.3506 65.1976 20.7075 65.1976 19.8114V17.5106H65.0571C64.9115 17.8057 64.6982 18.1088 64.4171 18.4198C64.1416 18.7308 63.7749 18.9917 63.3172 19.2026C62.8644 19.4134 62.295 19.5188 61.6084 19.5188C60.6874 19.5188 59.8529 19.3001 59.1036 18.8626C58.3598 18.4198 57.767 17.7609 57.3248 16.8859C56.8876 16.0056 56.6693 14.904 56.6693 13.581C56.6693 12.2474 56.8876 11.122 57.3248 10.2048C57.767 9.28238 58.3625 8.58395 59.1114 8.10957C59.8607 7.62989 60.6956 7.39008 61.6162 7.39008C62.3184 7.39008 62.8956 7.51128 63.3483 7.75379C63.806 7.99096 64.1699 8.27822 64.4405 8.61559C64.711 8.94766 64.9165 9.26132 65.0571 9.55647H65.2132V7.54821H67.9985V19.8904C67.9985 20.9289 67.7541 21.788 67.2652 22.468C66.7764 23.148 66.1076 23.6567 65.2598 23.994C64.4121 24.3313 63.4499 24.5 62.3728 24.5ZM62.3962 17.2734C62.9944 17.2734 63.5044 17.1258 63.9255 16.8306C64.3471 16.5354 64.6671 16.1111 64.8854 15.5576C65.1037 15.0041 65.2132 14.34 65.2132 13.5652C65.2132 12.8008 65.1037 12.1314 64.8854 11.5568C64.6721 10.9823 64.3549 10.5369 63.9333 10.2206C63.5172 9.89912 63.005 9.73835 62.3962 9.73835C61.7668 9.73835 61.2417 9.90436 60.8201 10.2364C60.399 10.5685 60.0818 11.0245 59.8685 11.6043C59.6552 12.1788 59.5485 12.8325 59.5485 13.5652C59.5485 14.3083 59.6552 14.9594 59.8685 15.5181C60.0868 16.0716 60.4068 16.5038 60.8279 16.8148C61.2545 17.1205 61.7773 17.2734 62.3962 17.2734ZM75.3362 24.5C74.3219 24.5 73.4508 24.3603 72.7225 24.081C71.9942 23.8069 71.4092 23.4379 70.967 22.9741C70.5248 22.5102 70.2177 21.9962 70.046 21.4322L72.5897 20.8076C72.7042 21.0448 72.8708 21.2794 73.0891 21.5113C73.3075 21.7485 73.6018 21.9436 73.9708 22.0964C74.3457 22.2545 74.8162 22.3336 75.3834 22.3336C76.1844 22.3336 76.8473 22.1359 77.3728 21.7406C77.8982 21.3506 78.161 20.7075 78.161 19.8114V17.5106H78.0205C77.8749 17.8057 77.6616 18.1088 77.3805 18.4198C77.105 18.7308 76.7383 18.9917 76.2806 19.2026C75.8279 19.4134 75.2584 19.5188 74.5718 19.5188C73.6508 19.5188 72.8163 19.3001 72.067 18.8626C71.3232 18.4198 70.7304 17.7609 70.2882 16.8859C69.851 16.0056 69.6327 14.904 69.6327 13.581C69.6327 12.2474 69.851 11.122 70.2882 10.2048C70.7304 9.28238 71.3259 8.58395 72.0748 8.10957C72.8241 7.62989 73.659 7.39008 74.5796 7.39008C75.2818 7.39008 75.859 7.51128 76.3117 7.75379C76.7694 7.99096 77.1333 8.27822 77.4039 8.61559C77.6744 8.94766 77.8799 9.26132 78.0205 9.55647H78.1766V7.54821H80.962V19.8904C80.962 20.9289 80.7175 21.788 80.2286 22.468C79.7398 23.148 79.071 23.6567 78.2232 23.994C77.3755 24.3313 76.4133 24.5 75.3362 24.5ZM75.3596 17.2734C75.9579 17.2734 76.4678 17.1258 76.8889 16.8306C77.3105 16.5354 77.6305 16.1111 77.8488 15.5576C78.0672 15.0041 78.1766 14.34 78.1766 13.5652C78.1766 12.8008 78.0672 12.1314 77.8488 11.5568C77.6355 10.9823 77.3183 10.5369 76.8967 10.2206C76.4806 9.89912 75.9684 9.73835 75.3596 9.73835C74.7302 9.73835 74.2051 9.90436 73.7836 10.2364C73.3624 10.5685 73.0452 11.0245 72.8319 11.6043C72.6186 12.1788 72.5119 12.8325 72.5119 13.5652C72.5119 14.3083 72.6186 14.9594 72.8319 15.5181C73.0502 16.0716 73.3702 16.5038 73.7913 16.8148C74.218 17.1205 74.7407 17.2734 75.3596 17.2734ZM90.7262 14.5851V7.54821H93.5509V19.6928H90.8122V17.5343H90.6873C90.4167 18.2142 89.9723 18.7704 89.3529 19.2026C88.7395 19.6348 87.9824 19.8509 87.0825 19.8509C86.297 19.8509 85.6026 19.6743 84.9993 19.3212C84.401 18.9627 83.9332 18.4435 83.5949 17.7636C83.2566 17.0783 83.0877 16.2507 83.0877 15.2809V7.54821H85.912V14.8381C85.912 15.6077 86.1203 16.2192 86.5364 16.6724C86.9525 17.1258 87.4986 17.3524 88.1751 17.3524C88.5912 17.3524 88.994 17.2497 89.3845 17.0441C89.7745 16.8385 90.0945 16.5328 90.3439 16.1269C90.5989 15.7157 90.7262 15.2018 90.7262 14.5851ZM95.6863 24.247V7.54821H98.4639V9.55647H98.6278C98.7734 9.26132 98.9789 8.94766 99.2444 8.61559C99.5094 8.27822 99.8683 7.99096 100.321 7.75379C100.774 7.51128 101.351 7.39008 102.053 7.39008C102.979 7.39008 103.814 7.62989 104.558 8.10957C105.307 8.58395 105.9 9.28767 106.337 10.2206C106.779 11.1483 107 12.2869 107 13.6363C107 14.9699 106.784 16.1032 106.352 17.0361C105.921 17.9691 105.333 18.6807 104.589 19.1709C103.845 19.6611 103.002 19.9063 102.061 19.9063C101.374 19.9063 100.805 19.7903 100.352 19.5584C99.8999 19.3264 99.5355 19.0471 99.2599 18.7203C98.9894 18.3882 98.7789 18.0746 98.6278 17.7794H98.5111V24.247H95.6863ZM98.4561 13.6205C98.4561 14.4059 98.5655 15.0937 98.7839 15.6841C99.0077 16.2745 99.3277 16.7357 99.7438 17.0678C100.165 17.3946 100.675 17.558 101.273 17.558C101.897 17.558 102.42 17.3893 102.841 17.052C103.262 16.7094 103.58 16.2429 103.793 15.6525C104.012 15.0569 104.121 14.3795 104.121 13.6205C104.121 12.8667 104.014 12.1973 103.801 11.6122C103.587 11.0271 103.27 10.5685 102.849 10.2364C102.428 9.90436 101.903 9.73835 101.273 9.73835C100.669 9.73835 100.157 9.89912 99.736 10.2206C99.3144 10.5422 98.9945 10.9928 98.7761 11.5727C98.5628 12.1525 98.4561 12.8351 98.4561 13.6205Z" fill="#333333"/>
    </g>
    <defs>
        <filter id="filter0_d_7_5363" x="4.5" y="6.5" width="18" height="16.3116" filterUnits="userSpaceOnUse" color-interpolation-filters="sRGB">
            <feFlood flood-opacity="0" result="BackgroundImageFix"/>
            <feColorMatrix in="SourceAlpha" type="matrix" values="0 0 0 0 0 0 0 0 0 0 0 0 0 0 0 0 0 0 127 0" result="hardAlpha"/>
            <feOffset dy="1.5"/>
            <feGaussianBlur stdDeviation="0.75"/>
            <feColorMatrix type="matrix" values="0 0 0 0 0 0 0 0 0 0 0 0 0 0 0 0 0 0 0.25 0"/>
            <feBlend mode="normal" in2="BackgroundImageFix" result="effect1_dropShadow_7_5363"/>
            <feBlend mode="normal" in="SourceGraphic" in2="effect1_dropShadow_7_5363" result="shape"/>
        </filter>
        <clipPath id="clip0_7_5363">
            <rect width="108" height="27" fill="white" transform="translate(0 0.5)"/>
        </clipPath>
    </defs>
</svg>
