<svg width="16" height="17" viewBox="0 0 16 17" fill="none" xmlns="http://www.w3.org/2000/svg">
    <path d="M1.60156 6.41409C1.60156 6.15141 1.73526 5.90497 1.96037 5.75274L7.50704 2.00173C7.80311 1.80151 8.20002 1.80151 8.49609 2.00173L14.0428 5.75274C14.2679 5.90497 14.4016 6.15141 14.4016 6.41409V13.4343C14.4016 14.1066 13.8285 14.6516 13.1216 14.6516H2.88156C2.17464 14.6516 1.60156 14.1066 1.60156 13.4343V6.41409Z" stroke="#666666" stroke-linecap="round" stroke-linejoin="round"/>
    <path d="M9.60156 9.05156C9.60156 9.93522 8.88522 10.6516 8.00156 10.6516C7.11791 10.6516 6.40156 9.93522 6.40156 9.05156C6.40156 8.16791 7.11791 7.45156 8.00156 7.45156C8.88522 7.45156 9.60156 8.16791 9.60156 9.05156Z" stroke="#666666" stroke-linecap="round" stroke-linejoin="round"/>
</svg>
