<svg width="17" height="16" viewBox="0 0 17 16" fill="none" xmlns="http://www.w3.org/2000/svg">
    <path d="M8.5 14.75L8.08398 15.0274C8.17671 15.1664 8.33282 15.25 8.5 15.25C8.66718 15.25 8.82329 15.1664 8.91602 15.0274L8.5 14.75ZM8.42496 14.6374L8.00893 14.9148L8.42496 14.6374ZM7.29933 13.1824L6.98185 13.5686L7.29933 13.1824ZM6.2662 12.6295L6.12091 13.1079L6.2662 12.6295ZM1.16349 11.681L1.60899 11.454L1.16349 11.681ZM1.81901 12.3365L2.04601 11.891L1.81901 12.3365ZM6.86197 1.57698L6.63498 2.02248L6.86197 1.57698ZM8.17302 2.88803L7.72752 3.11502L8.17302 2.88803ZM1.81901 1.41349L2.04601 1.85899L1.81901 1.41349ZM1.16349 2.06901L1.60899 2.29601L1.16349 2.06901ZM8.57504 14.6374L8.99107 14.9148L8.57504 14.6374ZM9.70067 13.1824L10.0182 13.5686L9.70067 13.1824ZM10.7338 12.6295L10.8791 13.1079L10.7338 12.6295ZM15.8365 11.681L15.391 11.454L15.8365 11.681ZM15.181 12.3365L14.954 11.891L15.181 12.3365ZM10.138 1.57698L10.365 2.02248L10.138 1.57698ZM8.82698 2.88803L9.27248 3.11502L8.82698 2.88803ZM15.181 1.41349L14.954 1.85899L15.181 1.41349ZM15.8365 2.06901L15.391 2.29601L15.8365 2.06901ZM3.4 1.75H3.7V0.75H3.4V1.75ZM1.5 10.1V3.65H0.5V10.1H1.5ZM8.91602 14.4726L8.84098 14.3601L8.00893 14.9148L8.08398 15.0274L8.91602 14.4726ZM4.43112 12H3.4V13H4.43112V12ZM8.84098 14.3601C8.33727 13.6045 8.03187 13.1372 7.61681 12.7961L6.98185 13.5686C7.25511 13.7932 7.47068 14.1074 8.00893 14.9148L8.84098 14.3601ZM4.43112 13C5.40146 13 5.78246 13.0051 6.12091 13.1079L6.4115 12.151C5.89741 11.9949 5.3392 12 4.43112 12V13ZM7.61681 12.7961C7.26134 12.5039 6.85176 12.2847 6.4115 12.151L6.12091 13.1079C6.43539 13.2034 6.72794 13.36 6.98185 13.5686L7.61681 12.7961ZM0.5 10.1C0.5 10.5118 0.499611 10.8507 0.522097 11.1259C0.545059 11.407 0.594342 11.6653 0.717987 11.908L1.60899 11.454C1.56915 11.3758 1.53669 11.2637 1.51878 11.0445C1.50039 10.8194 1.5 10.5283 1.5 10.1H0.5ZM3.4 12C2.97171 12 2.68056 11.9996 2.45552 11.9812C2.23631 11.9633 2.12421 11.9309 2.04601 11.891L1.59202 12.782C1.83469 12.9057 2.09304 12.9549 2.37409 12.9779C2.6493 13.0004 2.98821 13 3.4 13V12ZM0.717987 11.908C0.909734 12.2843 1.21569 12.5903 1.59202 12.782L2.04601 11.891C1.85785 11.7951 1.70487 11.6422 1.60899 11.454L0.717987 11.908ZM3.7 1.75C4.54833 1.75 5.15451 1.75039 5.62968 1.78921C6.09901 1.82756 6.39634 1.90089 6.63498 2.02248L7.08897 1.13148C6.68586 0.926087 6.24229 0.835932 5.71111 0.792533C5.18577 0.749611 4.53183 0.75 3.7 0.75V1.75ZM9 6.05C9 5.21817 9.00039 4.56423 8.95747 4.03889C8.91407 3.50771 8.82391 3.06413 8.61852 2.66103L7.72752 3.11502C7.84911 3.35366 7.92244 3.65099 7.96079 4.12032C7.99961 4.59549 8 5.20167 8 6.05H9ZM6.63498 2.02248C7.10538 2.26217 7.48783 2.64462 7.72752 3.11502L8.61852 2.66103C8.28297 2.00247 7.74753 1.46703 7.08897 1.13148L6.63498 2.02248ZM3.4 0.75C2.98821 0.75 2.6493 0.749611 2.37409 0.772097C2.09304 0.795059 1.83469 0.844342 1.59202 0.967987L2.04601 1.85899C2.12421 1.81915 2.23631 1.78669 2.45552 1.76878C2.68056 1.75039 2.97171 1.75 3.4 1.75V0.75ZM1.5 3.65C1.5 3.22171 1.50039 2.93056 1.51878 2.70552C1.53669 2.48631 1.56915 2.37421 1.60899 2.29601L0.717987 1.84202C0.594342 2.08469 0.545059 2.34304 0.522097 2.62409C0.499611 2.8993 0.5 3.23821 0.5 3.65H1.5ZM1.59202 0.967987C1.21569 1.15973 0.909734 1.46569 0.717987 1.84202L1.60899 2.29601C1.70487 2.10785 1.85785 1.95487 2.04601 1.85899L1.59202 0.967987ZM13.6 0.75H13.3V1.75H13.6V0.75ZM8 6.05V14.75H9V6.05H8ZM16.5 10.1V3.65H15.5V10.1H16.5ZM8.91602 15.0274L8.99107 14.9148L8.15902 14.3601L8.08398 14.4726L8.91602 15.0274ZM12.5689 13H13.6V12H12.5689V13ZM8.99107 14.9148C9.52932 14.1074 9.74489 13.7932 10.0182 13.5686L9.38319 12.7961C8.96813 13.1372 8.66273 13.6045 8.15902 14.3601L8.99107 14.9148ZM12.5689 12C11.6608 12 11.1026 11.9949 10.5885 12.151L10.8791 13.1079C11.2175 13.0051 11.5985 13 12.5689 13V12ZM10.0182 13.5686C10.2721 13.36 10.5646 13.2034 10.8791 13.1079L10.5885 12.151C10.1482 12.2847 9.73866 12.5039 9.38319 12.7961L10.0182 13.5686ZM15.5 10.1C15.5 10.5283 15.4996 10.8194 15.4812 11.0445C15.4633 11.2637 15.4309 11.3758 15.391 11.454L16.282 11.908C16.4057 11.6653 16.4549 11.407 16.4779 11.1259C16.5004 10.8507 16.5 10.5118 16.5 10.1H15.5ZM13.6 13C14.0118 13 14.3507 13.0004 14.6259 12.9779C14.907 12.9549 15.1653 12.9057 15.408 12.782L14.954 11.891C14.8758 11.9309 14.7637 11.9633 14.5445 11.9812C14.3194 11.9996 14.0283 12 13.6 12V13ZM15.391 11.454C15.2951 11.6422 15.1422 11.7951 14.954 11.891L15.408 12.782C15.7843 12.5903 16.0903 12.2843 16.282 11.908L15.391 11.454ZM13.3 0.75C12.4682 0.75 11.8142 0.749611 11.2889 0.792533C10.7577 0.835932 10.3141 0.926087 9.91103 1.13148L10.365 2.02248C10.6037 1.90089 10.901 1.82756 11.3703 1.78921C11.8455 1.75039 12.4517 1.75 13.3 1.75V0.75ZM9 6.05C9 5.20167 9.00039 4.59549 9.03921 4.12032C9.07756 3.65099 9.15089 3.35366 9.27248 3.11502L8.38148 2.66103C8.17609 3.06413 8.08593 3.50771 8.04253 4.03889C7.99961 4.56423 8 5.21817 8 6.05H9ZM9.91103 1.13148C9.25247 1.46703 8.71703 2.00247 8.38148 2.66103L9.27248 3.11502C9.51217 2.64462 9.89462 2.26217 10.365 2.02248L9.91103 1.13148ZM13.6 1.75C14.0283 1.75 14.3194 1.75039 14.5445 1.76878C14.7637 1.78669 14.8758 1.81915 14.954 1.85899L15.408 0.967987C15.1653 0.844342 14.907 0.795059 14.6259 0.772097C14.3507 0.749611 14.0118 0.75 13.6 0.75V1.75ZM16.5 3.65C16.5 3.23821 16.5004 2.8993 16.4779 2.62409C16.4549 2.34304 16.4057 2.08469 16.282 1.84202L15.391 2.29601C15.4309 2.37421 15.4633 2.48631 15.4812 2.70552C15.4996 2.93056 15.5 3.22171 15.5 3.65H16.5ZM14.954 1.85899C15.1422 1.95487 15.2951 2.10785 15.391 2.29601L16.282 1.84202C16.0903 1.4657 15.7843 1.15973 15.408 0.967987L14.954 1.85899Z" fill="#666666"/>
</svg>
